<svg width="28" height="28" viewBox="0 0 28 28" fill="none" xmlns="http://www.w3.org/2000/svg">
<path d="M22.856 23.5601H5.22088C5.00613 23.5601 4.79893 23.4809 4.63892 23.3377C4.47891 23.1945 4.37733 22.9973 4.35362 22.7839L2.80233 8.82232C2.78878 8.70035 2.80111 8.57689 2.83851 8.46001C2.87592 8.34313 2.93755 8.23545 3.0194 8.14401C3.10124 8.05256 3.20146 7.97941 3.31349 7.92933C3.42553 7.87925 3.54687 7.85336 3.66959 7.85336H24.4073C24.53 7.85336 24.6513 7.87925 24.7634 7.92933C24.8754 7.97941 24.9756 8.05256 25.0574 8.14401C25.1393 8.23545 25.2009 8.34313 25.2383 8.46001C25.2757 8.57689 25.2881 8.70035 25.2745 8.82232L23.7232 22.7839C23.6995 22.9973 23.5979 23.1945 23.4379 23.3377C23.2779 23.4809 23.0707 23.5601 22.856 23.5601Z" stroke="black" stroke-width="1.74519" stroke-linecap="round" stroke-linejoin="round"/>
<path d="M9.67542 11.3438V7.85337C9.67542 6.69623 10.1351 5.58649 10.9533 4.76827C11.7715 3.95006 12.8813 3.49039 14.0384 3.49039C15.1955 3.49039 16.3053 3.95006 17.1235 4.76827C17.9417 5.58649 18.4014 6.69623 18.4014 7.85337V11.3438" stroke="black" stroke-width="1.74519" stroke-linecap="round" stroke-linejoin="round"/>
</svg>
