<svg width="23" height="24" viewBox="0 0 23 24" fill="none" xmlns="http://www.w3.org/2000/svg">
<path d="M11.5 13.0239C13.0878 13.0239 14.375 11.7235 14.375 10.1194C14.375 8.51526 13.0878 7.21484 11.5 7.21484C9.91218 7.21484 8.625 8.51526 8.625 10.1194C8.625 11.7235 9.91218 13.0239 11.5 13.0239Z" stroke="white" stroke-width="1.5" stroke-linecap="round" stroke-linejoin="round"/>
<path d="M18.6875 10.1193C18.6875 16.6545 11.5 21.7375 11.5 21.7375C11.5 21.7375 4.3125 16.6545 4.3125 10.1193C4.3125 8.19345 5.06975 6.34649 6.41767 4.98472C7.76559 3.62295 9.59376 2.85791 11.5 2.85791C13.4062 2.85791 15.2344 3.62295 16.5823 4.98472C17.9302 6.34649 18.6875 8.19345 18.6875 10.1193V10.1193Z" stroke="white" stroke-width="1.5" stroke-linecap="round" stroke-linejoin="round"/>
</svg>
