<svg width="23" height="24" viewBox="0 0 23 24" fill="none" xmlns="http://www.w3.org/2000/svg">
<path d="M8.30842 11.5129C9.05397 13.0528 10.2895 14.2954 11.8171 15.0416C11.9289 15.0951 12.0525 15.1183 12.1758 15.1088C12.2992 15.0994 12.4179 15.0577 12.5205 14.9878L14.7698 13.4725C14.8693 13.4055 14.9837 13.3646 15.1028 13.3536C15.2218 13.3425 15.3418 13.3617 15.4517 13.4092L19.6597 15.2312C19.8026 15.2926 19.922 15.3992 19.9997 15.535C20.0775 15.6708 20.1094 15.8285 20.0908 15.9843C19.9578 17.0357 19.45 18.0022 18.6625 18.7026C17.8749 19.403 16.8617 19.7895 15.8125 19.7895C12.5719 19.7895 9.464 18.4889 7.17254 16.1739C4.88108 13.8589 3.59375 10.7191 3.59375 7.44516C3.59381 6.38516 3.9763 5.36152 4.66961 4.56591C5.36293 3.77031 6.31951 3.25729 7.36027 3.12292C7.51445 3.10407 7.67053 3.13635 7.80497 3.2149C7.93942 3.29346 8.04495 3.41402 8.10567 3.55844L9.91068 7.81342C9.95737 7.92347 9.97639 8.04349 9.96606 8.16277C9.95572 8.28206 9.91635 8.39691 9.85145 8.4971L8.35677 10.8044C8.28874 10.9082 8.24853 11.028 8.24005 11.1522C8.23158 11.2764 8.25513 11.4007 8.30842 11.5129V11.5129Z" stroke="white" stroke-width="1.5" stroke-linecap="round" stroke-linejoin="round"/>
</svg>
