<svg width="81" height="80" viewBox="0 0 81 80" fill="none" xmlns="http://www.w3.org/2000/svg">
<path d="M76.139 54.2699C74.2167 55.6169 72.0076 56.4925 69.6885 56.8266C67.3695 57.1607 65.0049 56.9441 62.784 56.194C62.5828 56.1219 62.3673 56.0997 62.1557 56.1292C61.9442 56.1587 61.7428 56.2392 61.5687 56.3637L55.5919 60.6273L57.1299 62.8066L62.5529 58.9317C65.0875 59.6765 67.7554 59.8432 70.3621 59.4195C72.9688 58.9958 75.4488 57.9925 77.6212 56.4826C78.404 55.9506 79.1459 55.3601 79.8406 54.7162L78.0396 52.7521C77.4452 53.3057 76.8098 53.8131 76.139 54.2699Z" fill="#90E051"/>
<path d="M62.7639 34.3294C60.8629 35.5513 59.3401 37.2843 58.368 39.3323C57.3959 41.3802 57.0134 43.661 57.2639 45.9164L40.4264 56.7739L23.5863 45.9231C23.8422 43.667 23.4615 41.384 22.4879 39.3353C21.5143 37.2866 19.9871 35.5551 18.081 34.3387C15.5508 32.5843 12.474 31.8124 9.42118 32.1662C7.98116 32.308 6.59003 32.7679 5.34711 33.513C4.10419 34.2582 3.04014 35.2702 2.23094 36.4769C1.42174 37.6835 0.887348 39.055 0.665918 40.4934C0.444488 41.9319 0.541484 43.4017 0.94998 44.7981C1.7683 47.7766 3.63284 50.3554 6.19766 52.056C8.0341 53.3803 10.2044 54.1571 12.4597 54.2973C14.7149 54.4374 16.9638 53.9352 18.9483 52.8483L32.019 62.184L19.5805 70.2075C18.9926 70.5833 18.4856 71.074 18.0896 71.6506C17.6936 72.2271 17.4167 72.8777 17.2753 73.5639C17.1338 74.25 17.1307 74.9578 17.2662 75.6452C17.4016 76.3326 17.6728 76.9856 18.0637 77.5656C18.4531 78.1444 18.9535 78.6391 19.5356 79.0206C20.1177 79.4021 20.7697 79.6627 21.4533 79.7872C22.1369 79.9116 22.8384 79.8974 23.5165 79.7454C24.1946 79.5933 24.8356 79.3065 25.402 78.9018L40.4264 68.1832L55.4509 78.9098C56.0179 79.3271 56.6628 79.6249 57.3469 79.7854C58.0311 79.946 58.7404 79.966 59.4324 79.8442C60.1244 79.7224 60.7848 79.4613 61.3741 79.0766C61.9634 78.692 62.4695 78.1916 62.862 77.6054C63.2545 77.0193 63.5253 76.3595 63.6583 75.6655C63.7912 74.9716 63.7836 74.2578 63.6357 73.5669C63.4879 72.876 63.203 72.2222 62.7981 71.6448C62.3931 71.0673 61.8764 70.578 61.279 70.2062L48.8259 62.1893L61.9059 52.8497C63.8902 53.9369 66.1389 54.4396 68.3941 54.2999C70.6494 54.1602 72.8198 53.3839 74.6565 52.06C80.1154 48.3535 81.8978 41.3602 78.6265 36.4699C75.3552 31.5796 68.2347 30.6229 62.7639 34.3294ZM23.8639 76.7279C23.2964 77.1122 22.6021 77.2581 21.9291 77.1345C21.2561 77.011 20.6578 76.6277 20.2619 76.0665C20.0702 75.7821 19.9372 75.4618 19.8709 75.1247C19.8046 74.7876 19.8062 74.4405 19.8757 74.1041C19.9452 73.7677 20.0811 73.4487 20.2755 73.1661C20.4698 72.8835 20.7185 72.643 21.007 72.4589L34.354 63.8488L38.1247 66.5398L23.8639 76.7279ZM60.9735 74.105C61.0776 74.612 61.0276 75.1387 60.83 75.6167C60.6324 76.0947 60.2964 76.5018 59.8657 76.785C59.435 77.0682 58.9295 77.2145 58.415 77.2048C57.9005 77.1951 57.4008 77.0298 56.981 76.7305L19.7399 50.1413C19.5128 49.9793 19.2409 49.8932 18.9625 49.8951C18.6841 49.897 18.4134 49.9869 18.1886 50.152C16.6151 51.185 14.7651 51.7089 12.887 51.6532C11.009 51.5976 9.19284 50.9651 7.68257 49.8407C5.65057 48.4998 4.17073 46.4633 3.51737 44.1086C3.20473 43.08 3.12466 41.9941 3.28299 40.9304C3.44133 39.8666 3.83408 38.852 4.43251 37.9606C5.03093 37.0693 5.81988 36.3238 6.74164 35.7787C7.66339 35.2337 8.69462 34.9028 9.75986 34.8104C12.1746 34.5378 14.6057 35.1549 16.6027 36.5474C18.2036 37.5358 19.4655 38.9934 20.2191 40.7242C20.9727 42.4551 21.1818 44.3765 20.8184 46.2304C20.7501 46.5022 20.7685 46.7886 20.871 47.0493C20.9735 47.3099 21.1549 47.5316 21.3895 47.6828L59.8459 72.4576C60.1343 72.6417 60.3829 72.8826 60.5767 73.1657C60.7704 73.4487 60.9054 73.7682 60.9735 74.105ZM73.1663 49.838C71.6556 50.9621 69.839 51.5942 67.9608 51.6494C66.0825 51.7046 64.2324 51.1802 62.659 50.1466C62.4342 49.9815 62.1634 49.8917 61.8851 49.8898C61.6067 49.8879 61.3348 49.974 61.1077 50.136L46.4139 60.63L42.8916 58.3586L59.4594 47.6694C59.6935 47.5184 59.8745 47.2972 59.977 47.0371C60.0795 46.777 60.0982 46.4911 60.0305 46.2197C59.6743 44.3655 59.8874 42.4461 60.6413 40.7166C61.3952 38.9871 62.6544 37.5292 64.2515 36.5367C68.5017 33.6546 73.9659 34.2906 76.4217 37.9503C78.8775 41.61 77.4152 46.9559 73.1663 49.838Z" fill="#90E051"/>
<path d="M15.0939 2.44904L13.6236 0.223022C10.4152 2.36167 8.00907 5.51738 6.78736 9.18898C5.56564 12.8606 5.59837 16.8376 6.88035 20.4883L9.38399 19.5958C8.29997 16.5062 8.2732 13.1408 9.30796 10.0342C10.3427 6.92758 12.3796 4.25784 15.0952 2.44904H15.0939Z" fill="#90E051"/>
<path d="M12.2025 24.4085C11.563 23.6787 10.9963 22.8874 10.5104 22.0462L8.21133 23.3823C8.78495 24.3769 9.45449 25.3123 10.2103 26.1749L12.2025 24.4085Z" fill="#90E051"/>
<path d="M55.0101 45.696L58.7915 26.6773C61.8658 26.4082 64.7175 24.9535 66.75 22.6175C68.7825 20.2816 69.8382 17.2454 69.6963 14.1443C69.5544 11.0432 68.2259 8.11746 65.9887 5.97924C63.7514 3.84101 60.7789 2.656 57.6931 2.67216C55.0074 2.66259 52.3987 3.57458 50.2977 5.25759C49.2034 3.6378 47.7318 2.3119 46.0112 1.3955C44.2907 0.479089 42.3734 0 40.4266 0C38.4798 0 36.5625 0.479089 34.8419 1.3955C33.1214 2.3119 31.6498 3.6378 30.5555 5.25759C28.4545 3.57458 25.8458 2.66259 23.1601 2.67216C20.0848 2.67187 17.1277 3.86395 14.9035 6.00055C12.6794 8.13716 11.3594 11.0539 11.218 14.1444C11.0765 17.2348 12.1245 20.2612 14.1441 22.5944C16.1636 24.9276 18.9994 26.388 22.0617 26.672L25.8431 45.696L28.4463 45.1722L27.7025 41.4203H53.1506L52.4069 45.1615L55.0101 45.696ZM48.5989 38.748L49.7106 30.9209L47.0808 30.5414L45.916 38.748H41.7548V24.0504H39.0984V38.748H34.9372L33.7724 30.5414L31.1425 30.9209L32.2542 38.748H27.1713L24.4617 25.1194C24.4005 24.8176 24.2375 24.5463 24.0003 24.3515C23.7631 24.1567 23.4663 24.0504 23.1601 24.0504C20.6943 24.0504 18.3295 23.065 16.5859 21.311C14.8423 19.557 13.8628 17.178 13.8628 14.6974C13.8628 12.2169 14.8423 9.8379 16.5859 8.08387C18.3295 6.32985 20.6943 5.34444 23.1601 5.34444C24.4259 5.34118 25.6787 5.60054 26.8403 6.10631C28.0019 6.61208 29.0473 7.3534 29.9113 8.28396C30.0589 8.441 30.2422 8.55968 30.4455 8.6298C30.6487 8.69991 30.8658 8.71939 31.0782 8.68654C31.2905 8.65369 31.4918 8.56951 31.6647 8.44121C31.8376 8.31291 31.977 8.14433 32.0709 7.94992C32.8297 6.36917 34.0161 5.03568 35.4941 4.10253C36.9721 3.16939 38.6816 2.6744 40.4266 2.6744C42.1715 2.6744 43.8811 3.16939 45.3591 4.10253C46.837 5.03568 48.0235 6.36917 48.7822 7.94992C48.8761 8.14433 49.0155 8.31291 49.1884 8.44121C49.3614 8.56951 49.5626 8.65369 49.775 8.68654C49.9874 8.71939 50.2045 8.69991 50.4077 8.6298C50.6109 8.55968 50.7942 8.441 50.9419 8.28396C51.8058 7.3534 52.8513 6.61208 54.0129 6.10631C55.1745 5.60054 56.4273 5.34118 57.6931 5.34444C60.1589 5.34444 62.5237 6.32985 64.2673 8.08387C66.0108 9.8379 66.9904 12.2169 66.9904 14.6974C66.9904 17.178 66.0108 19.557 64.2673 21.311C62.5237 23.065 60.1589 24.0504 57.6931 24.0504C57.3869 24.0504 57.0901 24.1567 56.8529 24.3515C56.6157 24.5463 56.4527 24.8176 56.3914 25.1194L53.6819 38.748H48.5989Z" fill="#90E051"/>
</svg>
