<svg width="81" height="80" viewBox="0 0 81 80" fill="none" xmlns="http://www.w3.org/2000/svg">
<path d="M14.0018 43.9261C14.7362 43.9261 15.3314 43.3297 15.3314 42.5941C15.3314 41.8584 14.7362 41.262 14.0018 41.262C13.2675 41.262 12.6722 41.8584 12.6722 42.5941C12.6722 43.3297 13.2675 43.9261 14.0018 43.9261Z" fill="#90E051"/>
<path d="M19.316 39.9328C20.0504 39.9328 20.6456 39.3364 20.6456 38.6007C20.6456 37.8651 20.0504 37.2687 19.316 37.2687C18.5817 37.2687 17.9865 37.8651 17.9865 38.6007C17.9865 39.3364 18.5817 39.9328 19.316 39.9328Z" fill="#90E051"/>
<path d="M32.6022 38.6018C33.3365 38.6018 33.9318 38.0054 33.9318 37.2697C33.9318 36.5341 33.3365 35.9377 32.6022 35.9377C31.8679 35.9377 31.2726 36.5341 31.2726 37.2697C31.2726 38.0054 31.8679 38.6018 32.6022 38.6018Z" fill="#90E051"/>
<path d="M10.0171 50.5811C10.7514 50.5811 11.3467 49.9847 11.3467 49.249C11.3467 48.5134 10.7514 47.917 10.0171 47.917C9.28278 47.917 8.6875 48.5134 8.6875 49.249C8.6875 49.9847 9.28278 50.5811 10.0171 50.5811Z" fill="#90E051"/>
<path d="M16.6594 49.2501C17.3937 49.2501 17.989 48.6537 17.989 47.918C17.989 47.1824 17.3937 46.586 16.6594 46.586C15.9251 46.586 15.3298 47.1824 15.3298 47.918C15.3298 48.6537 15.9251 49.2501 16.6594 49.2501Z" fill="#90E051"/>
<path d="M21.9735 45.2569C22.7078 45.2569 23.3031 44.6605 23.3031 43.9248C23.3031 43.1891 22.7078 42.5928 21.9735 42.5928C21.2391 42.5928 20.6439 43.1891 20.6439 43.9248C20.6439 44.6605 21.2391 45.2569 21.9735 45.2569Z" fill="#90E051"/>
<path d="M76.4442 14.6413H57.8441V9.31718C57.8441 8.58207 58.439 7.98615 59.1727 7.98615H69.8013C72.0026 7.98615 73.7871 6.19839 73.7871 3.99308C73.7871 1.78776 72.0026 0 69.8013 0H57.8441C53.4434 0.00440221 49.8771 3.57735 49.8727 7.98615V14.6413H31.2726C29.0713 14.6413 27.2869 16.429 27.2869 18.6344V19.9654C27.2925 21.6807 28.3935 23.1998 30.0198 23.7362L30.5153 30.6894C29.8856 30.6522 29.2572 30.6136 28.6154 30.6136C26.6912 30.6177 24.7713 30.7986 22.88 31.154L19.6569 26.9612C22.7431 23.8999 22.9145 20.2915 21.3269 18.2284C19.7392 16.1653 16.2012 15.4146 12.4719 17.6188L11.6097 16.4914C11.3249 16.101 10.8512 15.896 10.3723 15.956C9.89335 16.0159 9.48455 16.3314 9.30441 16.78C9.12428 17.2286 9.20114 17.7397 9.5052 18.1153L10.3714 19.244C7.27452 22.3053 7.12306 25.9217 8.70141 27.9768C10.3077 30.0652 13.8589 30.772 17.5564 28.5864L20.0461 31.8248C10.3369 34.6067 3.37249 41.9539 3.37249 50.579C3.36934 51.1648 3.40306 51.7503 3.47346 52.3319C3.63337 53.8306 4.62201 55.1114 6.02964 55.6435V58.5651C3.35685 58.5618 1.0992 60.5515 0.761789 63.2078C0.424373 65.8641 2.11263 68.3569 4.70106 69.0243V71.8754C4.70157 73.8715 5.45245 75.7942 6.8042 77.2607H2.04391C1.31016 77.2607 0.715332 77.8566 0.715332 78.5917C0.715332 79.3268 1.31016 79.9227 2.04391 79.9227H79.1014C79.8351 79.9227 80.4299 79.3268 80.4299 78.5917C80.4299 77.8566 79.8351 77.2607 79.1014 77.2607H72.1356C73.3543 75.9393 74.0901 74.2432 74.2228 72.449L77.6971 23.7335C79.3227 23.1978 80.4236 21.6798 80.4299 19.9654V18.6344C80.4299 16.429 78.6455 14.6413 76.4442 14.6413ZM10.8019 26.3543C9.73903 24.9674 10.7142 22.7792 12.0082 21.3789L12.7443 22.3359C13.029 22.7263 13.5027 22.9313 13.9817 22.8714C14.4606 22.8114 14.8694 22.496 15.0495 22.0474C15.2297 21.5988 15.1528 21.0876 14.8487 20.7121L14.1127 19.7551C15.719 18.8992 18.1303 18.436 19.2224 19.8562C20.543 21.5733 18.7813 24.3964 17.0396 25.7407C15.2978 27.085 12.1238 28.0713 10.8019 26.3543ZM52.5298 7.98615C52.5298 5.04573 54.9091 2.66205 57.8441 2.66205H69.8013C70.5351 2.66205 71.1299 3.25797 71.1299 3.99308C71.1299 4.72818 70.5351 5.3241 69.8013 5.3241H59.1727C56.9715 5.3241 55.187 7.11186 55.187 9.31718V14.6413H52.5298V7.98615ZM74.5417 30.6136H33.1738L32.6995 23.9585H75.0173L74.5417 30.6136ZM72.0732 65.2202H56.3269C56.4465 64.7865 56.51 64.3392 56.5156 63.8892C56.5156 60.9488 54.1363 58.5651 51.2013 58.5651V55.6369C52.6042 55.111 53.5919 53.8383 53.7548 52.3466C53.8265 51.7601 53.8611 51.1698 53.8584 50.579C53.8584 50.0758 53.8093 49.582 53.7628 49.0882C56.3832 48.465 58.1221 45.9738 57.8071 43.2941C57.4921 40.6143 55.2231 38.596 52.5298 38.5997C51.4867 38.6056 50.469 38.9231 49.607 39.5115C47.2818 36.8351 44.3957 34.7059 41.1546 33.2756H74.353L72.0732 65.2202ZM51.2013 61.2272C52.6688 61.2272 53.8584 62.419 53.8584 63.8892C53.8584 65.3594 52.6688 66.5513 51.2013 66.5513H26.5083L31.8226 61.2272H51.2013ZM52.5298 71.8754V69.0243C53.3253 68.8164 54.0614 68.4253 54.6795 67.8823H71.8832L71.5723 72.2574C71.3598 75.0381 69.051 77.1889 66.2673 77.1995H50.4838C51.8003 75.7397 52.5293 73.8426 52.5298 71.8754ZM51.1654 41.6611C51.5747 41.4045 52.047 41.2663 52.5298 41.2618C53.8423 41.256 54.9601 42.2161 55.1549 43.5164C55.3496 44.8168 54.5621 46.0632 53.3057 46.4435C52.84 44.7493 52.1182 43.1365 51.1654 41.6611ZM21.7839 34.0889L24.9061 38.1498C25.3553 38.7277 26.1862 38.8333 26.7653 38.3861C27.3443 37.9389 27.4539 37.107 27.0105 36.5247L24.724 33.5512C26.0137 33.3731 27.3137 33.281 28.6154 33.2756C41.0695 33.2756 51.2013 41.0382 51.2013 50.579C51.2029 51.0683 51.1745 51.5572 51.1162 52.0431C51.0477 52.7258 50.4725 53.2444 49.7877 53.241H7.43793C6.74804 53.2398 6.17244 52.7127 6.10935 52.0245C6.05339 51.5447 6.02677 51.062 6.02964 50.579C6.02964 42.859 12.6606 36.313 21.7839 34.0889ZM8.68679 55.9031H48.5441V58.5651H31.2726C30.9203 58.5652 30.5824 58.7055 30.3333 58.9551L20.7078 68.597L12.3377 59.0137C12.0858 58.7286 11.724 58.5653 11.3439 58.5651H8.68679V55.9031ZM3.37249 63.8892C3.37249 62.419 4.56213 61.2272 6.02964 61.2272H10.7408L15.3908 66.5513H6.02964C4.56213 66.5513 3.37249 65.3594 3.37249 63.8892ZM12.6725 77.1995C9.73751 77.1995 7.35822 74.8158 7.35822 71.8754V69.2133H17.7211L18.7149 70.3513C19.2001 70.9047 19.8919 71.2327 20.6267 71.2578H20.7131C21.418 71.2571 22.094 70.9766 22.593 70.4778L23.8512 69.2133H49.8727V71.8754C49.8727 74.8158 47.4934 77.1995 44.5584 77.1995H12.6725ZM77.7728 19.9654C77.7728 20.7005 77.178 21.2964 76.4442 21.2964H31.2726C30.5388 21.2964 29.944 20.7005 29.944 19.9654V18.6344C29.944 17.8992 30.5388 17.3033 31.2726 17.3033H76.4442C77.178 17.3033 77.7728 17.8992 77.7728 18.6344V19.9654Z" fill="#90E051"/>
<path d="M65.8158 35.9377C62.8808 35.9377 60.5015 38.3214 60.5015 41.2618C60.5015 44.2022 62.8808 46.5859 65.8158 46.5859C68.7508 46.5859 71.1301 44.2022 71.1301 41.2618C71.1301 38.3214 68.7508 35.9377 65.8158 35.9377ZM65.8158 43.9238C64.3483 43.9238 63.1586 42.732 63.1586 41.2618C63.1586 39.7916 64.3483 38.5997 65.8158 38.5997C67.2833 38.5997 68.4729 39.7916 68.4729 41.2618C68.4729 42.732 67.2833 43.9238 65.8158 43.9238Z" fill="#90E051"/>
<path d="M61.8297 53.2409C59.6285 53.2409 57.844 55.0287 57.844 57.234C57.844 59.4393 59.6285 61.2271 61.8297 61.2271C64.031 61.2271 65.8155 59.4393 65.8155 57.234C65.8155 55.0287 64.031 53.2409 61.8297 53.2409ZM61.8297 58.565C61.096 58.565 60.5011 57.9691 60.5011 57.234C60.5011 56.4989 61.096 55.903 61.8297 55.903C62.5635 55.903 63.1583 56.4989 63.1583 57.234C63.1583 57.9691 62.5635 58.565 61.8297 58.565Z" fill="#90E051"/>
</svg>
