<svg width="81" height="80" viewBox="0 0 81 80" fill="none" xmlns="http://www.w3.org/2000/svg">
<path d="M59.7644 31.9518L64.4479 31.6526C64.4558 31.652 64.4644 31.6513 64.4729 31.6507C67.8105 31.3668 70.8064 29.6038 72.693 26.8125L76.3956 21.3354C79.6183 16.5671 80.8669 10.8079 79.9102 5.11919C79.7223 4.00193 79.1555 2.97236 78.315 2.22118C77.4739 1.46939 76.3925 1.02543 75.2698 0.971467C69.5518 0.695525 64.0325 2.63632 59.7242 6.4339L54.7749 10.7969C52.2528 13.0197 50.8759 16.2298 50.9963 19.6055C50.9969 19.6135 50.9969 19.6221 50.9975 19.6307L51.2645 24.3542C51.3685 26.1957 50.6989 28.0126 49.4308 29.3359L10.7642 69.3867C9.7291 70.4752 9.19451 71.9683 9.25958 73.5915C9.33135 75.3784 10.1445 77.1334 11.435 78.2868C12.6009 79.3286 14.2034 79.9222 15.8054 79.9222C15.9769 79.9222 16.1484 79.9155 16.3193 79.9014C17.9255 79.772 19.3322 79.0582 20.2846 77.8845L55.0765 34.3875C56.2303 32.9562 57.9392 32.0683 59.7644 31.9518ZM53.2192 32.8716L18.4303 76.365C17.8987 77.0199 17.0813 77.4234 16.1289 77.5001C14.9959 77.5914 13.8343 77.2113 13.0205 76.484C12.2068 75.7561 11.6935 74.6389 11.6479 73.494C11.609 72.5319 11.9076 71.6654 12.4829 71.0608L51.1465 31.013C52.8798 29.2047 53.7921 26.7279 53.651 24.2175L53.384 19.5062C53.2934 16.8639 54.3729 14.3516 56.3476 12.6107L61.297 8.24776C65.1382 4.86225 70.0608 3.13363 75.1561 3.37768C75.7363 3.40589 76.2946 3.63523 76.7294 4.024C77.1643 4.41216 77.4568 4.94442 77.5541 5.52145C78.4068 10.5933 77.2938 15.727 74.4208 19.9778L70.7182 25.4555C69.241 27.641 66.8965 29.0225 64.2837 29.2488L59.6129 29.5468C57.1243 29.7063 54.795 30.9167 53.2192 32.8716Z" fill="#90E051"/>
<path d="M78.0165 69.0825L52.0906 45.2737C51.6028 44.8254 50.8475 44.861 50.4023 45.3528C49.9583 45.8446 49.9936 46.6068 50.4814 47.055L76.4006 70.8584C77.0172 71.4329 77.3669 72.2798 77.3858 73.2425C77.4083 74.388 76.9625 75.534 76.1932 76.3098C75.4244 77.0848 74.2896 77.5355 73.1511 77.5122C72.1962 77.4932 71.3563 77.1406 70.7926 76.5256L47.6904 50.9526C47.2459 50.4602 46.4899 50.4252 46.0022 50.8728C45.5144 51.3211 45.4791 52.0833 45.9237 52.5751L69.0313 78.1543C70.0469 79.2617 71.4932 79.8896 73.1042 79.9215C73.1462 79.9221 73.1876 79.9227 73.2295 79.9227C74.961 79.9227 76.6925 79.2145 77.8827 78.0138C79.1027 76.7838 79.81 74.9828 79.7747 73.1953C79.7431 71.5709 79.1209 70.1127 78.0165 69.0825Z" fill="#90E051"/>
<path d="M14.9278 31.7236C16.9056 33.5608 19.4751 34.6081 22.1632 34.6731C22.1718 34.6737 22.1803 34.6737 22.1882 34.6737L26.8809 34.6885C28.7102 34.694 30.4685 35.477 31.7025 36.8328L33.7697 39.1207C34.0056 39.3819 34.3286 39.5144 34.6533 39.5144C34.9404 39.5144 35.2287 39.4107 35.4573 39.2004C35.9457 38.7522 35.981 37.9899 35.5364 37.4982L33.4662 35.2072C31.7803 33.3541 29.3829 32.2872 26.8888 32.2786L22.2089 32.2639C20.1295 32.2105 18.1414 31.4078 16.6009 30.0017L3.00148 13.7016C2.86282 13.5348 2.87316 13.2932 3.02581 13.1393C3.13042 13.0332 3.25327 13.0178 3.31713 13.0178C3.38099 13.0178 3.50384 13.0332 3.60905 13.1393L15.9878 25.621C17.2115 26.8548 19.2027 26.8548 20.4263 25.6204L21.8811 24.1542V24.1536L24.464 21.5493C24.464 21.5493 24.4646 21.5493 24.4646 21.5487L24.4652 21.5481L25.9193 20.082C27.143 18.8482 27.143 16.8406 25.9193 15.6068L13.5405 3.12565C13.38 2.96376 13.38 2.69947 13.5405 2.53759C13.6932 2.38367 13.9328 2.37325 14.0982 2.51306L30.2647 16.2255C31.6599 17.7781 32.456 19.7833 32.5089 21.8792L32.5229 26.5985C32.5314 29.1126 33.5902 31.5298 35.4306 33.2333L37.6455 35.2673C38.1339 35.7156 38.8893 35.68 39.3338 35.1882C39.7778 34.6958 39.7425 33.9342 39.2548 33.486L37.0435 31.455C35.6951 30.2078 34.9191 28.4344 34.913 26.5905L34.8984 21.859C34.8984 21.8504 34.8984 21.8418 34.8978 21.8333C34.8333 19.1229 33.7946 16.5321 31.9725 14.538C31.9384 14.5006 31.9019 14.465 31.863 14.4319L15.6363 0.669154C14.5148 -0.282537 12.8874 -0.211406 11.851 0.833493C10.7581 1.93542 10.7581 3.72781 11.851 4.82913L24.2298 17.3109C24.5217 17.6052 24.5217 18.0841 24.2298 18.3785L23.6198 18.9929L9.82338 5.08299C9.35691 4.61205 8.60034 4.61205 8.13387 5.08299C7.6674 5.55332 7.6674 6.31614 8.13387 6.78647L21.9303 20.697L21.0363 21.5978L7.23985 7.68788C6.77338 7.21755 6.01681 7.21755 5.55034 7.68788C5.08327 8.15821 5.08327 8.92103 5.55034 9.39136L19.3462 23.3019L18.7368 23.9169C18.4449 24.2113 17.9699 24.2113 17.678 23.9169L5.29856 11.4358C4.76945 10.9023 4.06579 10.608 3.31713 10.608C2.56846 10.608 1.86481 10.9023 1.33569 11.4358C0.299365 12.4807 0.229424 14.1216 1.1727 15.253L14.8232 31.6132C14.8554 31.6525 14.8907 31.6893 14.9278 31.7236Z" fill="#90E051"/>
</svg>
