<svg width="81" height="80" viewBox="0 0 81 80" fill="none" xmlns="http://www.w3.org/2000/svg">
<path d="M80.169 0.45035C79.7437 0.0295075 79.1148 -0.110981 78.5523 0.0910105L13.8848 23.2088C11.6382 21.8314 8.78852 21.5089 6.17491 22.5939C1.83653 24.3957 -0.23123 29.4004 1.56578 33.7504C5.80358 44.0074 11.9222 53.1886 19.7521 61.039C27.582 68.8894 36.7393 75.0241 46.9697 79.2728C48.0321 79.7139 49.1334 79.9227 50.2176 79.9227C53.5611 79.9226 56.7402 77.9362 58.0971 74.6514C59.01 72.4414 58.9238 70.0628 58.0505 68.0204L80.5483 2.06644C80.7417 1.49949 80.5944 0.871348 80.169 0.45035ZM23.6763 23.0229L30.5299 20.573C31.3346 21.4325 31.7267 22.6158 31.5697 23.8124C31.4311 24.8661 30.8918 25.8028 30.0509 26.4499C29.21 27.0969 28.1687 27.3765 27.117 27.238C26.0662 27.0992 25.1321 26.5587 24.4867 25.7154C23.8921 24.9385 23.6092 23.9907 23.6763 23.0229ZM55.2202 73.4565C54.0802 76.216 50.9131 77.5312 48.1614 76.3879C28.2265 68.1092 12.7003 52.5424 4.44282 32.5555C3.89058 31.2188 3.89058 29.7467 4.44282 28.4098C4.99507 27.0732 6.03338 26.0321 7.36658 25.4785C8.69978 24.9248 10.1683 24.9248 11.5015 25.4785C12.8347 26.0321 13.873 27.0732 14.4252 28.4098C17.9596 36.9651 23.0632 44.623 29.5942 51.1711C36.1252 57.7191 43.7632 62.8359 52.2963 66.3796C55.0486 67.5224 56.3603 70.6973 55.2202 73.4565ZM69.0524 26.1199C68.9115 26.1164 68.7704 26.1083 68.6297 26.0899C67.5789 25.9511 66.6448 25.4104 65.9996 24.5673C65.3542 23.7242 65.0751 22.6794 65.2133 21.6259C65.499 19.4509 67.4958 17.9145 69.666 18.2005C70.3355 18.2889 70.964 18.5492 71.5 18.9452L69.0524 26.1199ZM72.5349 15.9101C71.7764 15.4959 70.943 15.2201 70.0723 15.1052C66.2001 14.5927 62.6358 17.3365 62.1261 21.2185C61.8792 23.0989 62.3774 24.9632 63.529 26.468C64.6383 27.9173 66.2264 28.8642 68.0178 29.153L64.9233 38.2253L61.3644 35.4874C60.6823 34.9629 59.7048 35.0915 59.1815 35.7755C58.658 36.4595 58.7868 37.4394 59.4689 37.9642L63.8602 41.3425L55.8118 64.9376C55.1367 64.3491 54.3593 63.8567 53.4886 63.4951C36.9882 56.6425 24.1373 43.7581 17.3029 27.215C17.0653 26.6397 16.7701 26.1055 16.4296 25.6135L20.5989 24.123C20.7445 25.3825 21.2267 26.5838 22.0165 27.6158C23.168 29.1205 24.8353 30.0856 26.7108 30.333C27.025 30.3745 27.3382 30.3951 27.6499 30.3951C29.1988 30.3951 30.6972 29.8878 31.9466 28.9267C33.4476 27.7719 34.41 26.1005 34.657 24.2198C34.8786 22.5316 34.4856 20.8595 33.6033 19.4743L52.957 12.5557L53.6905 14.3311C53.939 14.9323 54.5186 15.2952 55.1296 15.2952C55.3281 15.2952 55.5298 15.2568 55.7248 15.1759C56.5191 14.8461 56.8964 13.9328 56.5674 13.1363L55.8939 11.5059L76.5573 4.11898L72.5349 15.9101Z" fill="#90E051"/>
<path d="M17.9779 42.0714C17.9732 42.0641 17.9602 42.0441 17.9552 42.0369C17.4763 41.3166 16.5071 41.1233 15.7884 41.603C15.071 42.0819 14.8764 43.0541 15.3512 43.7747C15.6508 44.236 16.1519 44.4877 16.6638 44.4877C16.9535 44.4877 17.2464 44.4071 17.5079 44.2385C18.2346 43.7701 18.4449 42.7999 17.9779 42.0714Z" fill="#90E051"/>
<path d="M15.5993 38.1756C14.0752 35.4961 12.7051 32.6919 11.5272 29.841C11.1967 29.0406 10.2813 28.6611 9.48378 28.9924C8.68565 29.3238 8.30684 30.2412 8.63748 31.0413C9.86525 34.0132 11.2935 36.9364 12.8823 39.7294C13.1708 40.2366 13.6989 40.521 14.2422 40.521C14.505 40.521 14.7713 40.4545 15.0156 40.3148C15.7659 39.8856 16.0274 38.9279 15.5993 38.1756Z" fill="#90E051"/>
<path d="M50.0303 20.0711C49.7203 20.03 49.4054 20.0093 49.0945 20.0093C45.5415 20.0093 42.5119 22.6761 42.0477 26.2124C41.5357 30.1123 44.2832 33.7029 48.1727 34.2163C48.4827 34.2574 48.7975 34.2781 49.1084 34.2781C52.6613 34.2781 55.6909 31.6113 56.1552 28.0747C56.6671 24.175 53.9196 20.5846 50.0303 20.0711ZM53.054 27.6654C52.7938 29.6471 51.0976 31.1415 49.1084 31.1415C48.9336 31.1415 48.7561 31.1299 48.581 31.1067C46.4015 30.8189 44.8622 28.807 45.1491 26.6217C45.4093 24.6401 47.1054 23.1459 49.0945 23.1459C49.2694 23.1459 49.4469 23.1575 49.6219 23.1807C51.8012 23.4687 53.3409 25.4804 53.054 27.6654Z" fill="#90E051"/>
<path d="M49.6232 39.5777C49.313 39.5366 48.9984 39.5159 48.6874 39.5159C45.1344 39.5159 42.1048 42.1826 41.6406 45.7191C41.3924 47.6083 41.8929 49.4811 43.0498 50.993C44.2066 52.5048 45.8814 53.4743 47.7656 53.7231C48.0754 53.7641 48.3901 53.7846 48.7009 53.7846C52.2539 53.7846 55.2836 51.1179 55.748 47.5812C56.2602 43.6817 53.5125 40.0914 49.6232 39.5777ZM52.6469 47.1721C52.3867 49.1538 50.6903 50.6482 48.7012 50.6482C48.5265 50.6482 48.349 50.6364 48.1741 50.6134C47.1184 50.4738 46.1799 49.9306 45.5317 49.0836C44.8834 48.2366 44.6029 47.1871 44.742 46.1284C45.0022 44.1468 46.6984 42.6525 48.6874 42.6525C48.8623 42.6525 49.0398 42.6641 49.2148 42.6873C51.394 42.975 52.9336 44.9869 52.6469 47.1721Z" fill="#90E051"/>
<path d="M39.3076 33.0809L34.5004 32.4462C33.6444 32.3322 32.8583 32.9376 32.7455 33.7961C32.6326 34.6549 33.2355 35.4426 34.0919 35.5557L38.8991 36.1903C38.9684 36.1996 39.0372 36.204 39.1052 36.204C39.878 36.204 40.5502 35.6296 40.6538 34.8404C40.7669 33.9818 40.1641 33.194 39.3076 33.0809Z" fill="#90E051"/>
<path d="M36.8699 44.6538L36.4454 41.4195C36.3327 40.5608 35.5472 39.9561 34.6907 40.0695C33.8343 40.1825 33.2315 40.9701 33.3443 41.8288L33.7689 45.0631C33.8724 45.8524 34.5445 46.4269 35.3174 46.4269C35.3855 46.4269 35.4543 46.4225 35.5234 46.4132C36.3799 46.3001 36.9827 45.5126 36.8699 44.6538Z" fill="#90E051"/>
</svg>
