<svg width="22" height="21" viewBox="0 0 22 21" fill="none" xmlns="http://www.w3.org/2000/svg">
<path d="M8.57249 4.76256C9.45145 2.18657 9.89093 0.898584 10.692 0.898584C11.4931 0.898584 11.9325 2.18657 12.8115 4.76255L13.2698 6.10576C13.516 6.82724 13.6391 7.18798 13.9261 7.39651C14.2131 7.60504 14.5942 7.61063 15.3565 7.62181L16.7756 7.64262C19.4971 7.68254 20.8578 7.7025 21.1054 8.46436C21.3529 9.22621 20.2638 10.0422 18.0855 11.6742L16.9497 12.5251C16.3396 12.9822 16.0345 13.2107 15.9249 13.5481C15.8153 13.8856 15.9277 14.2497 16.1526 14.9781L16.5714 16.3342C17.3744 18.9349 17.7759 20.2352 17.1278 20.706C16.4798 21.1769 15.3671 20.3932 13.1419 18.8258L11.9816 18.0086C11.3584 17.5696 11.0468 17.3501 10.692 17.3501C10.3372 17.3501 10.0256 17.5696 9.40237 18.0086L8.24206 18.8258C6.01684 20.3932 4.90423 21.1769 4.25616 20.706C3.60809 20.2352 4.0096 18.9349 4.81263 16.3342L5.23136 14.9781C5.45627 14.2497 5.56873 13.8856 5.4591 13.5481C5.34947 13.2107 5.04442 12.9822 4.43433 12.5251L3.29848 11.6742C1.1202 10.0422 0.0310552 9.22621 0.278597 8.46436C0.526139 7.7025 1.8869 7.68254 4.60841 7.64262L6.02751 7.62181C6.78975 7.61063 7.17087 7.60504 7.45788 7.39651C7.7449 7.18798 7.86799 6.82724 8.11417 6.10576L8.57249 4.76256Z" fill="url(#paint0_linear_90_370)"/>
<defs>
<linearGradient id="paint0_linear_90_370" x1="10.692" y1="-1.4491" x2="10.692" y2="25.1448" gradientUnits="userSpaceOnUse">
<stop stop-color="#FFF500"/>
<stop offset="1" stop-color="#FFA800"/>
</linearGradient>
</defs>
</svg>
